<?xml version="1.0" encoding="utf-8"?>
<!-- Generator: Adobe Illustrator 28.3.0, SVG Export Plug-In . SVG Version: 6.00 Build 0)  -->
<svg version="1.1" id="Layer_1" xmlns="http://www.w3.org/2000/svg" xmlns:xlink="http://www.w3.org/1999/xlink" x="0px" y="0px"
	 viewBox="0 0 256 256" style="enable-background:new 0 0 256 256;" xml:space="preserve">
<style type="text/css">
	.st0{fill-rule:evenodd;clip-rule:evenodd;fill:#E90000;}
</style>
<g>
	<g>
		<path class="st0" d="M148.4,76.5C114.8,62.2,75.3,87,75.1,123.6c-20.6,0.5-41.2,1.5-61.4,3.1c20.2,1.7,40.8,4.4,61.4,6.7
			c0.8,36,40,60.3,73.3,46.2c18.5-7.3,32.1-26.4,32.4-46.1c20.6-2.2,41.2-5,61.4-6.7c-20.2-1.7-40.8-2.6-61.4-3.1
			C181,103.5,167.2,83.9,148.4,76.5z M128,178.4c-25.7,0.4-48.3-19.7-52.5-45c13.1,1.4,26.2,2.6,39.1,3.2c2.5,4.8,7.5,8.1,13.4,8.1
			c5.8,0,10.9-3.3,13.4-8.1c13-0.5,26-1.8,39.1-3.2C176.3,158.7,153.6,178.8,128,178.4z M141.6,122.9c-2.4-5-7.6-8.5-13.6-8.5
			s-11.1,3.5-13.6,8.5c-13,0.1-26,0.3-39.1,0.6c3.8-25.7,26.7-46.4,52.7-46c25.9-0.4,48.8,20.2,52.7,46
			C167.6,123.2,154.5,123,141.6,122.9z"/>
		<path class="st0" d="M256,105.3c-22.1-3.5-44.6-3.5-66.7,0C211.4,108.8,233.9,108.9,256,105.3z"/>
		<path class="st0" d="M66.7,105.3c-22.1-3.5-44.6-3.5-66.7,0C22.1,108.9,44.6,108.8,66.7,105.3z"/>
	</g>
</g>
</svg>
