<svg width="18" height="18" viewBox="0 0 18 18" fill="none" xmlns="http://www.w3.org/2000/svg">
<path fill-rule="evenodd" clip-rule="evenodd" d="M10.3672 17.9958V11.7472H12.6153L12.9603 9.08965H10.3672V7.3926C10.3672 6.96076 10.4555 6.63667 10.6331 6.42202C10.8098 6.20736 11.1514 6.09961 11.6587 6.09961H13.0478V3.72829C12.5707 3.65758 11.8976 3.6197 11.031 3.6197C10.0105 3.6197 9.19351 3.92863 8.57932 4.53977C7.96597 5.15512 7.65888 6.0188 7.65888 7.13249V9.08965H5.40067V11.7472H7.65804V18C3.32589 17.3459 0 13.5966 0 9.05514C0 4.05406 4.02926 0 9 0C13.9707 0 18 4.05406 18 9.05514C18 13.5873 14.6867 17.3308 10.3672 17.9958Z" fill="white"/>
</svg>
