<?xml version="1.0" encoding="utf-8"?>
<!-- Generator: Adobe Illustrator 28.3.0, SVG Export Plug-In . SVG Version: 6.00 Build 0)  -->
<svg version="1.1" id="Layer_1" xmlns="http://www.w3.org/2000/svg" xmlns:xlink="http://www.w3.org/1999/xlink" x="0px" y="0px"
	 viewBox="0 0 911.7 425.2" style="enable-background:new 0 0 911.7 425.2;" xml:space="preserve">
<style type="text/css">
	.st0{fill-rule:evenodd;clip-rule:evenodd;fill:#FFFFFF;}
	.st1{fill-rule:evenodd;clip-rule:evenodd;fill:#E90000;}
</style>
<g>
	<path class="st0" d="M26.3,304.9v-64.8c0-19.7,9.9-31,28.9-31c19,0,28.9,11.3,28.9,31v10.6l-18.3,0v-11.8c0-8.8-3.9-12.1-10-12.1
		c-6.2,0-10,3.3-10,12.1v67.4c0,8.8,3.9,12,10,12c6.2,0,10-3.2,10-12v-24.1h-9.7v-17.6h28v40.3c0,19.7-9.9,31-28.9,31
		C36.2,335.9,26.3,324.6,26.3,304.9"/>
	<polygon class="st0" points="105.6,210.8 125,210.8 125,316.5 156.8,316.5 156.8,334.1 105.6,334.1 	"/>
	<path class="st0" d="M212.3,306.1v-67.3c0-8.8-3.9-12.1-10-12.1s-10,3.3-10,12.1v67.3c0,8.8,3.9,12.2,10,12.2
		C208.4,318.3,212.3,314.9,212.3,306.1 M172.9,304.9v-64.8c0-19.7,10.4-31,29.4-31c19,0,29.4,11.3,29.4,31v64.8
		c0,19.7-10.4,31-29.4,31C183.2,335.9,172.9,324.6,172.9,304.9z"/>
	<path class="st0" d="M284,316.5c6.5,0,10-3,10-12.2v-10.7c0-11.4-3.7-15-12.5-15h-8.6v37.9H284z M280.4,261c7.2,0,11.6-3.2,11.6-13
		v-6.9c0-8.8-3-12.7-9.9-12.7h-9.3V261H280.4z M253.5,210.8h29.2c20.1,0,28.7,9.3,28.7,28.4v4.9c0,12.7-3.9,20.6-12.5,24.1v0.4
		c10.4,3.5,14.4,12.7,14.4,25.7v10.6c0,19-10,29.2-29.4,29.2l-30.5,0L253.5,210.8L253.5,210.8z"/>
	<path class="st0" d="M369.2,293.3l-8.8-62.2l-8.6,62.2H369.2z M371.7,310h-22.4l-3.3,24.1l-18,0l20.1-123.3h26.2l20.1,123.3H375
		L371.7,310z"/>
	<polygon class="st0" points="412.3,210.8 431.7,210.8 431.7,316.5 463.6,316.5 463.6,334.1 412.3,334.1 	"/>
	<path class="st0" d="M538.5,316.5c6.2,0,9.9-3.2,9.9-12v-64.1c0-8.8-3.7-12-9.9-12l-9.9,0v88L538.5,316.5z M509.2,210.8h29.6
		c19.4,0,28.9,10.7,28.9,30.5v62.3c0,19.7-9.5,30.5-28.9,30.5l-29.6,0V210.8z"/>
	<path class="st0" d="M615.9,263.7c7.2,0,11.6-3.2,11.6-13v-9.5c0-8.8-3-12.7-9.9-12.7h-8.8v35.2L615.9,263.7z M589.5,210.8h28.7
		c20.1,0,28.7,9.3,28.7,28.4v7.6c0,12.7-4.1,20.8-12.7,24.3v0.4c9.7,3,12.8,12.1,12.8,26.1v21.7c0,6,0.2,10.4,2.1,15h-19.7
		c-1.1-3.2-1.8-5.1-1.8-15.1v-22.5c0-11.4-3.3-15.1-12.1-15.1h-6.7v52.8h-19.4L589.5,210.8L589.5,210.8z"/>
	<path class="st0" d="M707.3,306.1v-67.3c0-8.8-3.9-12.1-10-12.1c-6.2,0-10,3.3-10,12.1v67.3c0,8.8,3.9,12.2,10,12.2
		C703.5,318.3,707.3,314.9,707.3,306.1 M667.9,304.9v-64.8c0-19.7,10.4-31,29.4-31c19,0,29.4,11.3,29.4,31v64.8
		c0,19.7-10.4,31-29.4,31C678.3,335.9,667.9,324.6,667.9,304.9z"/>
	<polygon class="st0" points="748.5,210.8 772.5,210.8 792,284.6 792,210.8 809.3,210.8 809.3,334.1 789.7,334.1 765.8,244.1 
		765.8,334.1 748.5,334.1 	"/>
	<polygon class="st0" points="832.5,210.8 885.3,210.8 885.3,228.5 851.9,228.5 851.9,261 878.5,261 878.5,278.6 851.9,278.6 
		851.9,316.5 885.3,316.5 885.3,334.1 832.5,334.1 	"/>
	<path class="st0" d="M306.1,404.6h4.7l-2.3-15.5h-0.2L306.1,404.6z M312.8,418l-1.2-8.4h-6.1l-1.2,8.4h-5.6l6.4-36.8h7.1l6.4,36.8
		H312.8z"/>
	<path class="st0" d="M365.1,389.5v3.3l-5.4,0.3v-3c0-2.9-1.1-4.3-3.2-4.3c-2,0-3.2,1.3-3.2,3.7v20.1c0,2.4,1.1,3.7,3.2,3.7
		c2.1,0,3.2-1.3,3.2-4.3V405l5.4,0.3v4.4c0,5.6-3.2,8.8-8.7,8.8c-5.4,0-8.6-3.3-8.6-8.8v-20.2c0-5.6,3.2-8.8,8.6-8.8
		C361.9,380.7,365.1,383.9,365.1,389.5"/>
	<path class="st0" d="M401.6,404.6h4.7l-2.3-15.5h-0.2L401.6,404.6z M408.2,418l-1.2-8.4h-6.1l-1.2,8.4h-5.6l6.4-36.8h7.1l6.4,36.8
		H408.2z"/>
	<path class="st0" d="M449.7,412.9h2.2c2.7,0,3.9-1.4,3.9-4.5v-17.5c0-3.1-1.2-4.5-3.9-4.5l-2.2,0V412.9z M452.2,381.2
		c6,0,9.3,3.3,9.3,9.3v18.2c0,6-3.3,9.3-9.3,9.3h-8v-36.8H452.2z"/>
	<polygon class="st0" points="498.7,386.4 498.7,396.8 506.9,396.8 506.9,401.9 498.7,401.9 498.7,412.9 508.8,412.9 508.8,418 
		493.1,418 493.1,381.2 508.8,381.2 508.8,386.4 498.7,386.4 	"/>
	<polygon class="st0" points="557.9,418 557.9,392.5 557.8,392.5 553.1,412.7 549.8,412.7 545.2,392.5 545.1,392.5 545.1,418 
		539.8,418 539.8,381.2 547.1,381.2 551.5,401 551.6,401 555.9,381.2 563.4,381.2 563.4,418 	"/>
	<polygon class="st0" points="605.5,418 599.9,418 599.9,401.3 592.2,381.2 598,381.2 602.7,394.2 602.8,394.2 607.3,381.2 
		613.1,381.2 605.5,401.4 	"/>
	<g>
		<path class="st1" d="M485.9,12.7C436.4-8.3,378.2,28.2,378,82c-30.4,0.8-60.7,2.2-90.4,4.6c29.7,2.5,60.1,6.5,90.4,9.8
			c1.2,53,58.9,88.8,107.9,68c27.3-10.8,47.3-38.9,47.7-67.9c30.4-3.3,60.7-7.4,90.4-9.8c-29.7-2.5-60-3.8-90.4-4.6
			C533.9,52.5,513.6,23.6,485.9,12.7z M455.8,162.8c-37.8,0.6-71.1-29-77.3-66.2c19.3,2.1,38.5,3.8,57.6,4.7
			c3.7,7.1,11.1,11.9,19.7,11.9c8.6,0,16-4.8,19.7-11.9c19.1-0.8,38.3-2.6,57.6-4.7C526.9,133.7,493.6,163.3,455.8,162.8z
			 M475.8,81.1c-3.6-7.4-11.2-12.5-20-12.5c-8.8,0-16.3,5.1-20,12.5c-19.1,0.2-38.3,0.4-57.6,0.9c5.6-37.9,39.3-68.3,77.6-67.7
			c38.2-0.6,71.9,29.8,77.6,67.7C514.1,81.5,494.9,81.2,475.8,81.1z"/>
		<path class="st1" d="M678.5,55.1c-38.4-5.2-77.5-5.2-116,0C601,60.3,640.1,60.4,678.5,55.1z"/>
		<path class="st1" d="M349.2,55.1c-38.4-5.2-77.5-5.2-116,0C271.6,60.4,310.7,60.3,349.2,55.1z"/>
	</g>
</g>
</svg>
