<svg width="18" height="18" viewBox="0 0 18 18" fill="none" xmlns="http://www.w3.org/2000/svg">
<path fill-rule="evenodd" clip-rule="evenodd" d="M17.9478 12.7096C17.9037 13.6671 17.7523 14.3223 17.5293 14.8946C17.2991 15.4866 16.9917 15.9879 16.492 16.4891C15.9907 16.9896 15.4893 17.2967 14.8974 17.5272C14.3244 17.7498 13.6701 17.9021 12.7124 17.9455C11.7524 17.9897 11.4466 18 9.0007 18C6.55564 18 6.24902 17.9897 5.28976 17.9455C4.33049 17.9013 3.67626 17.7498 3.1048 17.5272C2.51285 17.2967 2.00997 16.9896 1.51023 16.4891C1.0105 15.9887 0.702299 15.4866 0.472926 14.8946C0.249859 14.3231 0.0969515 13.6679 0.0543875 12.7096C0.0102471 11.7498 0 11.4435 0 8.99961C0 6.55493 0.0110353 6.24865 0.0543875 5.28878C0.0977397 4.33127 0.249859 3.6761 0.472926 3.10459C0.702299 2.51256 1.0105 2.01052 1.51023 1.51006C2.00997 1.0096 2.51285 0.70175 3.1048 0.472043C3.67705 0.249441 4.33128 0.0970925 5.28976 0.0544665C6.24745 0.0102618 6.55485 0 8.99913 0C11.445 0 11.7508 0.0102618 12.7109 0.0544665C13.6693 0.0970925 14.3236 0.25023 14.8958 0.472043C15.4878 0.70175 15.9899 1.0096 16.4904 1.51006C16.9909 2.01052 17.2975 2.51256 17.5277 3.10459C17.7508 3.6761 17.9029 4.33127 17.9462 5.28878C17.9904 6.24865 17.9998 6.55493 17.9998 8.99961C18.0014 11.4435 17.992 11.7498 17.9478 12.7096ZM13.8049 5.27615C13.2082 5.27615 12.7243 4.79226 12.7243 4.1955C12.7243 3.59874 13.2082 3.11564 13.8049 3.11564C14.4024 3.11564 14.8856 3.59874 14.8856 4.1955C14.8856 4.79226 14.4024 5.27615 13.8049 5.27615ZM8.99913 13.6214C6.44686 13.6214 4.37621 11.5516 4.37621 8.99961C4.37621 6.44757 6.44686 4.37863 8.99913 4.37863C11.5522 4.37863 13.6221 6.44757 13.6221 8.99961C13.6221 11.5516 11.553 13.6214 8.99913 13.6214ZM8.99913 6C7.34228 6 5.99837 7.34272 5.99837 8.99961C5.99837 10.6557 7.34228 11.9992 8.99913 11.9992C10.6568 11.9992 11.9999 10.6557 11.9999 8.99961C11.9999 7.34272 10.6568 6 8.99913 6Z" fill="white"/>
</svg>
