<svg width="18" height="12" viewBox="0 0 18 12" fill="none" xmlns="http://www.w3.org/2000/svg">
<path fill-rule="evenodd" clip-rule="evenodd" d="M17.9909 4.59489C17.997 4.93144 18 5.39981 18 6.00093C18 6.59925 17.997 7.06949 17.9909 7.40604C17.9838 7.74353 17.9556 8.17171 17.9051 8.68588C17.8546 9.201 17.7799 9.66189 17.678 10.0686C17.572 10.5248 17.3408 10.909 16.9855 11.2222C16.6291 11.5344 16.2142 11.7167 15.7398 11.7653C14.2528 11.9224 12.0067 12 8.99948 12C5.99224 12 3.74717 11.9224 2.2602 11.7653C1.78373 11.7167 1.36782 11.5344 1.01046 11.2222C0.652099 10.909 0.418924 10.5248 0.311919 10.0686C0.218038 9.66189 0.146352 9.201 0.0968875 8.68588C0.0454041 8.17171 0.0171402 7.74353 0.0100738 7.40604C0.00300749 7.06949 0 6.59925 0 6.00093C0 5.39888 0.00300749 4.93051 0.0100738 4.59489C0.0171402 4.25646 0.0454041 3.83016 0.0968875 3.31412C0.146352 2.799 0.221052 2.33717 0.32301 1.93238C0.429005 1.47429 0.661189 1.09099 1.01552 0.776875C1.37085 0.465563 1.78576 0.284201 2.26122 0.233718C3.74818 0.0775943 5.99326 0 9.00049 0C12.0077 0 14.2538 0.0775943 15.7408 0.233718C16.2162 0.284201 16.6332 0.465563 16.9915 0.776875C17.3489 1.09006 17.5821 1.47429 17.6891 1.93238C17.7829 2.33717 17.8546 2.799 17.9051 3.31412C17.9546 3.8311 17.9838 4.25646 17.9909 4.59489ZM12.8577 6.00187C12.8577 5.76909 12.7568 5.59987 12.5559 5.49517L7.4136 2.4961C7.20464 2.3699 6.98759 2.36429 6.75945 2.47647C6.54039 2.58959 6.42834 2.76348 6.42834 3V9C6.42834 9.23839 6.54039 9.41228 6.75945 9.52446C6.86746 9.57588 6.97144 9.60019 7.0734 9.60019C7.20564 9.60019 7.31973 9.57121 7.41462 9.5067L12.5569 6.5067C12.7568 6.39919 12.8577 6.23185 12.8577 6.00187Z" fill="white"/>
</svg>
